<svg width="211" height="50" viewBox="0 0 211 50" fill="none" xmlns="http://www.w3.org/2000/svg">
<path d="M2.04 14.62C2.04 14.82 2.22 15 2.42 15H3.2C3.42 15 3.58 14.82 3.58 14.62V8.56H11.7V14.62C11.7 14.82 11.86 15 12.08 15H12.86C13.06 15 13.24 14.82 13.24 14.62V1.38C13.24 1.18 13.06 0.999999 12.86 0.999999H12.08C11.86 0.999999 11.7 1.18 11.7 1.38V7.22H3.58V1.38C3.58 1.18 3.42 0.999999 3.2 0.999999H2.42C2.22 0.999999 2.04 1.18 2.04 1.38V14.62ZM15.5423 11C15.5423 13.3 17.0423 15.2 19.4623 15.2C20.8423 15.2 21.9223 14.66 22.4023 14.28C22.7023 14.06 22.6223 13.94 22.4823 13.76C22.3623 13.6 22.2623 13.46 22.1423 13.3C21.9823 13.08 21.8623 13.18 21.5823 13.34C21.1223 13.62 20.4423 13.94 19.6023 13.94C18.1823 13.94 17.0023 12.68 16.9223 11.34H22.6823C22.8623 11.34 23.0223 11.2 23.0423 11C23.0623 10.86 23.0823 10.6 23.0823 10.46C23.0823 8.36 21.5623 6.8 19.4623 6.8C17.0423 6.8 15.5423 8.74 15.5423 11ZM16.9423 10.22C17.0823 8.98 18.1223 8.02 19.4623 8.02C20.6823 8.02 21.6423 9.06 21.7023 10.22H16.9423ZM25.083 14.62C25.083 14.82 25.263 15 25.463 15H26.083C26.283 15 26.463 14.82 26.463 14.62V1.38C26.463 1.18 26.283 0.999999 26.083 0.999999H25.463C25.263 0.999999 25.083 1.18 25.083 1.38V14.62ZM29.1408 14.62C29.1408 14.82 29.3208 15 29.5208 15H30.1408C30.3408 15 30.5208 14.82 30.5208 14.62V1.38C30.5208 1.18 30.3408 0.999999 30.1408 0.999999H29.5208C29.3208 0.999999 29.1408 1.18 29.1408 1.38V14.62ZM32.5986 10.98C32.5986 13.28 34.3586 15.2 36.5786 15.2C38.7986 15.2 40.5586 13.28 40.5586 10.98C40.5586 8.72 38.7986 6.8 36.5786 6.8C34.3586 6.8 32.5986 8.72 32.5986 10.98ZM33.9786 10.98C33.9786 9.4 35.1186 8.12 36.5786 8.12C38.0386 8.12 39.1786 9.4 39.1786 10.98C39.1786 12.6 38.0386 13.9 36.5786 13.9C35.1186 13.9 33.9786 12.6 33.9786 10.98ZM49.4606 14.62C49.4606 14.82 49.6406 15 49.8406 15H50.6006C50.8006 15 50.9806 14.82 50.9806 14.62V2.34H54.4606C54.6806 2.34 54.8406 2.16 54.8406 1.96V1.38C54.8406 1.18 54.6806 0.999999 54.4606 0.999999H45.9806C45.7606 0.999999 45.6006 1.18 45.6006 1.38V1.96C45.6006 2.16 45.7606 2.34 45.9806 2.34H49.4606V14.62ZM54.2252 10.98C54.2252 13.28 55.9852 15.2 58.2052 15.2C60.4252 15.2 62.1852 13.28 62.1852 10.98C62.1852 8.72 60.4252 6.8 58.2052 6.8C55.9852 6.8 54.2252 8.72 54.2252 10.98ZM55.6052 10.98C55.6052 9.4 56.7452 8.12 58.2052 8.12C59.6652 8.12 60.8052 9.4 60.8052 10.98C60.8052 12.6 59.6652 13.9 58.2052 13.9C56.7452 13.9 55.6052 12.6 55.6052 10.98ZM64.2536 14.62C64.2536 14.82 64.4336 15 64.6336 15H65.2536C65.4536 15 65.6336 14.82 65.6336 14.62V9.28C65.6336 9.28 66.7136 8.14 68.2136 8.14C69.3336 8.14 70.0136 8.88 70.0136 10.4V14.62C70.0136 14.82 70.1936 15 70.3936 15H71.0336C71.2336 15 71.4136 14.82 71.4136 14.62V10.4C71.4136 8.32 70.6336 6.8 68.3136 6.8C66.6536 6.8 65.5136 7.86 65.5136 7.86L65.3336 7.24C65.2936 7.08 65.1936 7 65.0136 7H64.6336C64.4336 7 64.2536 7.18 64.2536 7.38V14.62ZM76.5359 14.98L73.9759 20.5C73.8359 20.78 73.9959 21 74.2959 21H75.0359C75.1759 21 75.3159 20.88 75.3759 20.76L81.5159 7.46C81.6559 7.2 81.5159 7 81.2159 7H80.4559C80.3159 7 80.1759 7.1 80.1159 7.22L77.3159 13.34H77.2959L74.3359 7.22C74.2759 7.1 74.1559 7 73.9959 7H73.1159C72.8159 7 72.6959 7.18 72.8159 7.44L76.5359 14.98ZM82.4594 14.06C82.4594 14.68 82.9794 15.2 83.5994 15.2C83.6794 15.2 83.7594 15.2 83.8394 15.18C83.8394 16.64 82.7994 17.52 82.5994 17.7C82.3994 17.88 82.3794 18.08 82.4794 18.18L82.7594 18.46C82.8794 18.58 83.0394 18.6 83.2394 18.42C83.8794 17.82 84.9194 16.38 84.9194 14.72C84.9194 13.28 84.2394 12.92 83.5994 12.92C82.9794 12.92 82.4594 13.42 82.4594 14.06ZM94.5009 14.92C94.5409 15.08 94.7009 15.2 94.8609 15.2H95.1809C95.3209 15.2 95.4809 15.1 95.5209 14.98L98.9809 5.04H99.0809L102.601 14.98C102.641 15.1 102.801 15.2 102.941 15.2H103.261C103.421 15.2 103.581 15.08 103.621 14.92L107.401 1.48C107.481 1.2 107.321 0.999999 107.041 0.999999H105.701C105.541 0.999999 105.381 1.14 105.341 1.28L102.961 10.46H102.881L99.5809 1.02C99.5409 0.899999 99.4009 0.799999 99.2409 0.799999H98.8809C98.7209 0.799999 98.5809 0.899999 98.5409 1.02L95.2809 10.46H95.2009L92.7809 1.28C92.7409 1.14 92.5809 0.999999 92.4209 0.999999H91.0809C90.8009 0.999999 90.6409 1.2 90.7209 1.48L94.5009 14.92ZM108.817 14.62C108.817 14.82 108.997 15 109.197 15H110.337C110.597 15 110.737 14.84 110.737 14.62V9.8C110.837 9.46 111.677 8.54 112.897 8.54C113.937 8.54 114.597 9.26 114.597 10.56V14.62C114.597 14.82 114.757 15 114.977 15H116.097C116.297 15 116.477 14.82 116.477 14.62V10.6C116.477 8.42 115.397 6.8 113.137 6.8C111.857 6.8 110.937 7.52 110.737 7.66V1.38C110.737 1.18 110.557 0.999999 110.357 0.999999H109.197C108.997 0.999999 108.817 1.18 108.817 1.38V14.62ZM118.193 12.52C118.193 14.18 119.273 15.2 120.773 15.2C122.013 15.2 122.793 14.6 123.233 14.18L123.433 14.72C123.513 14.92 123.593 15 123.773 15H124.333C124.533 15 124.713 14.82 124.713 14.62V10.36C124.713 8.36 124.473 6.8 121.913 6.8C120.433 6.8 119.293 7.2 119.153 7.26C118.973 7.32 118.833 7.46 118.893 7.72L119.053 8.46C119.113 8.68 119.253 8.84 119.493 8.78C119.913 8.66 120.813 8.42 121.733 8.42C122.753 8.42 122.993 8.92 122.973 10.18C122.973 10.18 122.233 9.94 121.393 9.94C119.353 9.94 118.193 11.06 118.193 12.52ZM119.933 12.5C119.933 11.68 120.593 11.18 121.553 11.18C122.273 11.18 122.833 11.42 122.953 11.5V12.78C122.713 13.18 121.953 13.78 121.153 13.78C120.413 13.78 119.933 13.22 119.933 12.5ZM127.55 12.82C127.55 14.24 128.01 15.2 129.59 15.2C130.55 15.2 131.73 14.72 131.93 14.6C132.13 14.5 132.21 14.34 132.11 14.12L131.75 13.24C131.67 13.06 131.55 12.94 131.29 13.06C131.05 13.18 130.49 13.42 130.07 13.42C129.69 13.42 129.43 13.3 129.43 12.62V8.66H131.47C131.69 8.66 131.85 8.48 131.85 8.28V7.38C131.85 7.16 131.69 7 131.47 7H129.43V4.76C129.43 4.56 129.27 4.38 129.07 4.38L127.93 4.4C127.73 4.4 127.55 4.58 127.55 4.78V7H126.71C126.49 7 126.33 7.16 126.33 7.38V8.28C126.33 8.48 126.49 8.66 126.71 8.66H127.55V12.82ZM138.559 14.62C138.559 14.82 138.739 15 138.939 15H140.119C140.319 15 140.499 14.82 140.499 14.62V8.66H142.659C142.879 8.66 143.039 8.48 143.039 8.28V7.38C143.039 7.16 142.879 7 142.659 7H140.499V4.52C140.499 3.18 141.119 2.54 141.999 2.54C142.479 2.54 143.059 2.84 143.319 3.02C143.519 3.16 143.719 3.14 143.819 2.96L144.319 2.06C144.399 1.92 144.379 1.72 144.239 1.6C143.879 1.28 143.039 0.799999 141.959 0.799999C140.039 0.799999 138.559 2.04 138.559 4.52V7H137.619C137.399 7 137.239 7.16 137.239 7.38V8.28C137.239 8.48 137.399 8.66 137.619 8.66H138.559V14.62ZM144.438 14.62C144.438 14.82 144.618 15 144.818 15H145.778C146.098 15 146.318 14.96 146.318 14.62V9.54C146.398 9.4 146.958 8.56 148.118 8.56C148.378 8.56 148.678 8.64 148.798 8.7C148.978 8.78 149.178 8.74 149.278 8.52L149.758 7.54C149.978 7 149.058 6.8 148.298 6.8C146.838 6.8 146.098 7.76 145.958 7.96L145.738 7.28C145.698 7.12 145.538 7 145.398 7H144.818C144.618 7 144.438 7.18 144.438 7.38V14.62ZM150.837 11.42C150.837 13.5 151.677 15.2 154.077 15.2C155.697 15.2 156.537 14.26 156.717 14.1L156.917 14.68C156.977 14.86 157.077 15 157.277 15H157.837C158.037 15 158.217 14.82 158.217 14.62V7.38C158.217 7.18 158.037 7 157.837 7H156.797C156.517 7 156.357 7.06 156.357 7.38V12.16C156.297 12.52 155.557 13.48 154.377 13.48C153.357 13.48 152.737 12.78 152.737 11.48V7.38C152.737 7.18 152.557 7 152.357 7H151.217C151.017 7 150.837 7.18 150.837 7.38V11.42ZM161.54 3.74C162.2 3.74 162.72 3.22 162.72 2.58C162.72 1.92 162.2 1.4 161.54 1.4C160.9 1.4 160.4 1.92 160.4 2.58C160.4 3.22 160.9 3.74 161.54 3.74ZM160.62 14.62C160.62 14.82 160.8 15 161 15H162.14C162.34 15 162.52 14.82 162.52 14.62V7.38C162.52 7.18 162.34 7 162.14 7H161C160.8 7 160.62 7.18 160.62 7.38V14.62ZM165.433 12.82C165.433 14.24 165.893 15.2 167.473 15.2C168.433 15.2 169.613 14.72 169.813 14.6C170.013 14.5 170.093 14.34 169.993 14.12L169.633 13.24C169.553 13.06 169.433 12.94 169.173 13.06C168.933 13.18 168.373 13.42 167.953 13.42C167.573 13.42 167.313 13.3 167.313 12.62V8.66H169.353C169.573 8.66 169.733 8.48 169.733 8.28V7.38C169.733 7.16 169.573 7 169.353 7H167.313V4.76C167.313 4.56 167.153 4.38 166.953 4.38L165.813 4.4C165.613 4.4 165.433 4.58 165.433 4.78V7H164.593C164.373 7 164.213 7.16 164.213 7.38V8.28C164.213 8.48 164.373 8.66 164.593 8.66H165.433V12.82ZM175.461 14.38C175.881 14.72 176.761 15.2 178.101 15.2C179.881 15.2 181.061 14.1 181.061 12.86C181.061 11.36 179.861 10.74 178.401 10.1C177.621 9.76 177.121 9.54 177.121 9.02C177.121 8.72 177.341 8.42 178.021 8.42C178.781 8.42 179.661 8.84 179.661 8.84C179.821 8.92 180.081 8.86 180.181 8.68L180.541 8C180.661 7.8 180.561 7.54 180.381 7.42C179.981 7.16 179.141 6.8 178.021 6.8C176.101 6.8 175.281 8 175.281 9C175.281 10.32 176.321 11.08 177.561 11.62C178.661 12.12 179.101 12.38 179.101 12.92C179.101 13.36 178.721 13.6 178.121 13.6C177.141 13.6 176.261 13.08 176.261 13.08C176.061 12.96 175.841 13.02 175.761 13.18L175.341 13.96C175.261 14.12 175.341 14.3 175.461 14.38ZM182.209 12.52C182.209 14.18 183.289 15.2 184.789 15.2C186.029 15.2 186.809 14.6 187.249 14.18L187.449 14.72C187.529 14.92 187.609 15 187.789 15H188.349C188.549 15 188.729 14.82 188.729 14.62V10.36C188.729 8.36 188.489 6.8 185.929 6.8C184.449 6.8 183.309 7.2 183.169 7.26C182.989 7.32 182.849 7.46 182.909 7.72L183.069 8.46C183.129 8.68 183.269 8.84 183.509 8.78C183.929 8.66 184.829 8.42 185.749 8.42C186.769 8.42 187.009 8.92 186.989 10.18C186.989 10.18 186.249 9.94 185.409 9.94C183.369 9.94 182.209 11.06 182.209 12.52ZM183.949 12.5C183.949 11.68 184.609 11.18 185.569 11.18C186.289 11.18 186.849 11.42 186.969 11.5V12.78C186.729 13.18 185.969 13.78 185.169 13.78C184.429 13.78 183.949 13.22 183.949 12.5ZM191.046 14.62C191.046 14.82 191.226 15 191.426 15H192.566C192.766 15 192.946 14.82 192.946 14.62V1.38C192.946 1.18 192.766 0.999999 192.566 0.999999H191.426C191.226 0.999999 191.046 1.18 191.046 1.38V14.62ZM194.758 12.52C194.758 14.18 195.838 15.2 197.338 15.2C198.578 15.2 199.358 14.6 199.798 14.18L199.998 14.72C200.078 14.92 200.158 15 200.338 15H200.898C201.098 15 201.278 14.82 201.278 14.62V10.36C201.278 8.36 201.038 6.8 198.478 6.8C196.998 6.8 195.858 7.2 195.718 7.26C195.538 7.32 195.398 7.46 195.458 7.72L195.618 8.46C195.678 8.68 195.818 8.84 196.058 8.78C196.478 8.66 197.378 8.42 198.298 8.42C199.318 8.42 199.558 8.92 199.538 10.18C199.538 10.18 198.798 9.94 197.958 9.94C195.918 9.94 194.758 11.06 194.758 12.52ZM196.498 12.5C196.498 11.68 197.158 11.18 198.118 11.18C198.838 11.18 199.398 11.42 199.518 11.5V12.78C199.278 13.18 198.518 13.78 197.718 13.78C196.978 13.78 196.498 13.22 196.498 12.5ZM203.015 11C203.015 13.3 204.635 15.2 206.755 15.2C208.335 15.2 209.295 14.08 209.295 14.08L209.455 14.66C209.515 14.86 209.635 15 209.815 15H210.415C210.615 15 210.795 14.82 210.795 14.62V1.38C210.795 1.18 210.615 0.999999 210.415 0.999999H209.255C209.055 0.999999 208.875 1.18 208.875 1.38V7.24C208.695 7.18 207.975 6.8 206.955 6.8C204.735 6.8 203.015 8.66 203.015 11ZM204.875 11C204.875 9.64 205.815 8.54 207.155 8.54C208.195 8.54 208.895 9.02 208.895 9.02V12.28C208.795 12.5 208.215 13.48 206.995 13.48C205.715 13.48 204.875 12.34 204.875 11ZM0.7 40.02C0.7 42.42 2.64 44.2 4.88 44.2C6.26 44.2 7.34 43.54 7.98 42.52C8.12 42.32 8.04 42.12 7.84 41.96L7.3 41.52C7.12 41.38 6.94 41.38 6.76 41.56C6.34 41.96 5.92 42.48 4.9 42.48C3.6 42.48 2.6 41.38 2.6 40C2.6 38.64 3.62 37.54 4.92 37.54C5.58 37.54 6.16 37.9 6.52 38.3C6.68 38.44 6.82 38.6 7.06 38.38L7.72 37.78C7.9 37.64 7.94 37.4 7.8 37.22C7.06 36.3 6.12 35.8 4.9 35.8C2.68 35.8 0.7 37.66 0.7 40.02ZM9.17188 39.98C9.17188 42.28 10.9719 44.2 13.2119 44.2C15.4519 44.2 17.2519 42.28 17.2519 39.98C17.2519 37.72 15.4519 35.8 13.2119 35.8C10.9719 35.8 9.17188 37.72 9.17188 39.98ZM10.9519 39.98C10.9519 38.64 11.9519 37.54 13.2119 37.54C14.4719 37.54 15.4719 38.64 15.4719 39.98C15.4719 41.36 14.4719 42.48 13.2119 42.48C11.9519 42.48 10.9519 41.36 10.9519 39.98ZM19.0445 43.62C19.0445 43.82 19.2245 44 19.4245 44H20.5445C20.7445 44 20.9245 43.82 20.9245 43.62V38.74C21.0245 38.48 21.7045 37.54 22.9045 37.54C24.0245 37.54 24.6045 38.24 24.6045 39.52V43.62C24.6045 43.82 24.7645 44 24.9845 44H26.0445C26.2445 44 26.4245 43.82 26.4245 43.62V39.48C26.4245 39.08 26.4045 38.7 26.3645 38.52C26.5045 38.4 27.2045 37.54 28.4245 37.54C29.5045 37.54 30.0845 38.26 30.0845 39.52V43.62C30.0845 43.82 30.2445 44 30.4645 44H31.5845C31.8045 44 31.9645 43.82 31.9645 43.62V39.6C31.9645 37.52 31.1045 35.8 28.6645 35.8C27.1445 35.8 25.9845 36.86 25.7645 37.08C25.1845 36.26 24.3445 35.8 23.1845 35.8C21.6445 35.8 20.7245 36.74 20.5445 36.92L20.3245 36.24C20.2645 36.1 20.1645 36 19.9845 36H19.4245C19.2245 36 19.0445 36.18 19.0445 36.38V43.62ZM34.2742 43.62C34.2742 43.82 34.4542 44 34.6542 44H35.2542C35.4342 44 35.5542 43.86 35.6142 43.66L35.7742 43.08C35.7742 43.08 36.7342 44.2 38.3142 44.2C40.4342 44.2 42.0542 42.3 42.0542 40C42.0542 37.66 40.3342 35.8 38.1142 35.8C37.0942 35.8 36.3742 36.18 36.1942 36.24V30.38C36.1942 30.18 36.0142 30 35.8142 30H34.6542C34.4542 30 34.2742 30.18 34.2742 30.38V43.62ZM36.1742 41.28V38C36.1742 38 36.8742 37.54 37.9142 37.54C39.2542 37.54 40.1942 38.64 40.1942 40C40.1942 41.34 39.3542 42.48 38.0742 42.48C36.8542 42.48 36.2742 41.5 36.1742 41.28ZM43.2789 39.98C43.2789 42.28 45.0789 44.2 47.3189 44.2C49.5589 44.2 51.3589 42.28 51.3589 39.98C51.3589 37.72 49.5589 35.8 47.3189 35.8C45.0789 35.8 43.2789 37.72 43.2789 39.98ZM45.0589 39.98C45.0589 38.64 46.0589 37.54 47.3189 37.54C48.5789 37.54 49.5789 38.64 49.5789 39.98C49.5789 41.36 48.5789 42.48 47.3189 42.48C46.0589 42.48 45.0589 41.36 45.0589 39.98ZM56.7661 40C56.7661 42.3 58.3861 44.2 60.5061 44.2C62.0861 44.2 63.0461 43.08 63.0461 43.08L63.2061 43.66C63.2661 43.86 63.3861 44 63.5661 44H64.1661C64.3661 44 64.5461 43.82 64.5461 43.62V30.38C64.5461 30.18 64.3661 30 64.1661 30H63.0061C62.8061 30 62.6261 30.18 62.6261 30.38V36.24C62.4461 36.18 61.7261 35.8 60.7061 35.8C58.4861 35.8 56.7661 37.66 56.7661 40ZM58.6261 40C58.6261 38.64 59.5661 37.54 60.9061 37.54C61.9461 37.54 62.6461 38.02 62.6461 38.02V41.28C62.5461 41.5 61.9661 42.48 60.7461 42.48C59.4661 42.48 58.6261 41.34 58.6261 40ZM66.3508 39.98C66.3508 42.28 68.1508 44.2 70.3908 44.2C72.6308 44.2 74.4308 42.28 74.4308 39.98C74.4308 37.72 72.6308 35.8 70.3908 35.8C68.1508 35.8 66.3508 37.72 66.3508 39.98ZM68.1308 39.98C68.1308 38.64 69.1308 37.54 70.3908 37.54C71.6508 37.54 72.6508 38.64 72.6508 39.98C72.6508 41.36 71.6508 42.48 70.3908 42.48C69.1308 42.48 68.1308 41.36 68.1308 39.98ZM82.818 43.72L80.138 49.46C79.998 49.74 80.178 50 80.478 50H81.678C81.838 50 81.958 49.88 82.018 49.76L88.138 36.52C88.278 36.26 88.118 36 87.798 36H86.658C86.478 36 86.318 36.04 86.238 36.22L83.838 41.54H83.818L81.338 36.22C81.278 36.1 81.118 36 80.998 36H79.678C79.378 36 79.218 36.26 79.338 36.52L82.818 43.72ZM88.8758 39.98C88.8758 42.28 90.6758 44.2 92.9158 44.2C95.1558 44.2 96.9558 42.28 96.9558 39.98C96.9558 37.72 95.1558 35.8 92.9158 35.8C90.6758 35.8 88.8758 37.72 88.8758 39.98ZM90.6558 39.98C90.6558 38.64 91.6558 37.54 92.9158 37.54C94.1758 37.54 95.1758 38.64 95.1758 39.98C95.1758 41.36 94.1758 42.48 92.9158 42.48C91.6558 42.48 90.6558 41.36 90.6558 39.98ZM98.6284 40.42C98.6284 42.5 99.4684 44.2 101.868 44.2C103.488 44.2 104.328 43.26 104.508 43.1L104.708 43.68C104.768 43.86 104.868 44 105.068 44H105.628C105.828 44 106.008 43.82 106.008 43.62V36.38C106.008 36.18 105.828 36 105.628 36H104.588C104.308 36 104.148 36.06 104.148 36.38V41.16C104.088 41.52 103.348 42.48 102.168 42.48C101.148 42.48 100.528 41.78 100.528 40.48V36.38C100.528 36.18 100.348 36 100.148 36H99.0084C98.8084 36 98.6284 36.18 98.6284 36.38V40.42ZM114.226 44C114.266 44.12 114.406 44.2 114.566 44.2H114.666C114.826 44.2 114.946 44.12 114.986 44.02L117.426 38.68H117.446L119.906 44.02C119.946 44.12 120.086 44.2 120.246 44.2H120.326C120.506 44.2 120.646 44.12 120.686 44L123.026 36.46C123.146 36.2 123.006 36 122.726 36H121.946C121.726 36 121.426 36 121.326 36.24L120.006 40.68H119.986L117.866 36C117.826 35.9 117.706 35.8 117.526 35.8H117.406C117.246 35.8 117.106 35.9 117.066 36L114.926 40.66H114.906L113.566 36.24C113.526 36.1 113.346 36 113.206 36H112.126C111.846 36 111.726 36.2 111.846 36.46L114.226 44ZM124.092 41.52C124.092 43.18 125.172 44.2 126.672 44.2C127.912 44.2 128.692 43.6 129.132 43.18L129.332 43.72C129.412 43.92 129.492 44 129.672 44H130.232C130.432 44 130.612 43.82 130.612 43.62V39.36C130.612 37.36 130.372 35.8 127.812 35.8C126.332 35.8 125.192 36.2 125.052 36.26C124.872 36.32 124.732 36.46 124.792 36.72L124.952 37.46C125.012 37.68 125.152 37.84 125.392 37.78C125.812 37.66 126.712 37.42 127.632 37.42C128.652 37.42 128.892 37.92 128.872 39.18C128.872 39.18 128.132 38.94 127.292 38.94C125.252 38.94 124.092 40.06 124.092 41.52ZM125.832 41.5C125.832 40.68 126.492 40.18 127.452 40.18C128.172 40.18 128.732 40.42 128.852 40.5V41.78C128.612 42.18 127.852 42.78 127.052 42.78C126.312 42.78 125.832 42.22 125.832 41.5ZM132.929 43.62C132.929 43.82 133.109 44 133.309 44H134.349C134.689 44 134.809 43.88 134.809 43.62V38.74C134.909 38.46 135.769 37.54 137.029 37.54C138.069 37.54 138.689 38.24 138.689 39.52V43.62C138.689 43.82 138.849 44 139.069 44H140.209C140.409 44 140.589 43.82 140.589 43.62V39.6C140.589 37.52 139.689 35.8 137.249 35.8C135.649 35.8 134.589 36.76 134.449 36.92L134.209 36.24C134.169 36.1 134.049 36 133.889 36H133.309C133.109 36 132.929 36.18 132.929 36.38V43.62ZM143.347 41.82C143.347 43.24 143.807 44.2 145.387 44.2C146.347 44.2 147.527 43.72 147.727 43.6C147.927 43.5 148.007 43.34 147.907 43.12L147.547 42.24C147.467 42.06 147.347 41.94 147.087 42.06C146.847 42.18 146.287 42.42 145.867 42.42C145.487 42.42 145.227 42.3 145.227 41.62V37.66H147.267C147.487 37.66 147.647 37.48 147.647 37.28V36.38C147.647 36.16 147.487 36 147.267 36H145.227V33.76C145.227 33.56 145.067 33.38 144.867 33.38L143.727 33.4C143.527 33.4 143.347 33.58 143.347 33.78V36H142.507C142.287 36 142.127 36.16 142.127 36.38V37.28C142.127 37.48 142.287 37.66 142.507 37.66H143.347V41.82ZM154.255 41.82C154.255 43.24 154.715 44.2 156.295 44.2C157.255 44.2 158.435 43.72 158.635 43.6C158.835 43.5 158.915 43.34 158.815 43.12L158.455 42.24C158.375 42.06 158.255 41.94 157.995 42.06C157.755 42.18 157.195 42.42 156.775 42.42C156.395 42.42 156.135 42.3 156.135 41.62V37.66H158.175C158.395 37.66 158.555 37.48 158.555 37.28V36.38C158.555 36.16 158.395 36 158.175 36H156.135V33.76C156.135 33.56 155.975 33.38 155.775 33.38L154.635 33.4C154.435 33.4 154.255 33.58 154.255 33.78V36H153.415C153.195 36 153.035 36.16 153.035 36.38V37.28C153.035 37.48 153.195 37.66 153.415 37.66H154.255V41.82ZM159.849 39.98C159.849 42.28 161.649 44.2 163.889 44.2C166.129 44.2 167.929 42.28 167.929 39.98C167.929 37.72 166.129 35.8 163.889 35.8C161.649 35.8 159.849 37.72 159.849 39.98ZM161.629 39.98C161.629 38.64 162.629 37.54 163.889 37.54C165.149 37.54 166.149 38.64 166.149 39.98C166.149 41.36 165.149 42.48 163.889 42.48C162.629 42.48 161.629 41.36 161.629 39.98ZM169.142 40C169.142 42.3 170.762 44.2 172.882 44.2C174.462 44.2 175.422 43.08 175.422 43.08L175.582 43.66C175.642 43.86 175.762 44 175.942 44H176.542C176.742 44 176.922 43.82 176.922 43.62V30.38C176.922 30.18 176.742 30 176.542 30H175.382C175.182 30 175.002 30.18 175.002 30.38V36.24C174.822 36.18 174.102 35.8 173.082 35.8C170.862 35.8 169.142 37.66 169.142 40ZM171.002 40C171.002 38.64 171.942 37.54 173.282 37.54C174.322 37.54 175.022 38.02 175.022 38.02V41.28C174.922 41.5 174.342 42.48 173.122 42.48C171.842 42.48 171.002 41.34 171.002 40ZM178.747 41.52C178.747 43.18 179.827 44.2 181.327 44.2C182.567 44.2 183.347 43.6 183.787 43.18L183.987 43.72C184.067 43.92 184.147 44 184.327 44H184.887C185.087 44 185.267 43.82 185.267 43.62V39.36C185.267 37.36 185.027 35.8 182.467 35.8C180.987 35.8 179.847 36.2 179.707 36.26C179.527 36.32 179.387 36.46 179.447 36.72L179.607 37.46C179.667 37.68 179.807 37.84 180.047 37.78C180.467 37.66 181.367 37.42 182.287 37.42C183.307 37.42 183.547 37.92 183.527 39.18C183.527 39.18 182.787 38.94 181.947 38.94C179.907 38.94 178.747 40.06 178.747 41.52ZM180.487 41.5C180.487 40.68 181.147 40.18 182.107 40.18C182.827 40.18 183.387 40.42 183.507 40.5V41.78C183.267 42.18 182.507 42.78 181.707 42.78C180.967 42.78 180.487 42.22 180.487 41.5ZM189.984 43.72L187.304 49.46C187.164 49.74 187.344 50 187.644 50H188.844C189.004 50 189.124 49.88 189.184 49.76L195.304 36.52C195.444 36.26 195.284 36 194.964 36H193.824C193.644 36 193.484 36.04 193.404 36.22L191.004 41.54H190.984L188.504 36.22C188.444 36.1 188.284 36 188.164 36H186.844C186.544 36 186.384 36.26 186.504 36.52L189.984 43.72ZM198.708 38.56H199.788C200.028 38.56 200.208 38.42 200.208 38.16V37.42C200.208 36 203.308 35.54 203.308 33.02C203.308 31.12 201.708 29.8 199.628 29.8C197.088 29.8 195.828 31.56 195.828 31.56C195.708 31.72 195.668 31.94 195.828 32.08L196.488 32.72C196.648 32.86 196.808 32.86 196.968 32.72C197.368 32.38 198.008 31.52 199.428 31.52C200.588 31.52 201.228 32.24 201.228 33.06C201.228 34.9 198.328 35.16 198.328 37.34V38.18C198.328 38.4 198.508 38.56 198.708 38.56ZM197.848 42.82C197.848 43.58 198.468 44.2 199.228 44.2C200.008 44.2 200.628 43.58 200.628 42.82C200.628 42.04 200.008 41.42 199.228 41.42C198.468 41.42 197.848 42.04 197.848 42.82Z" fill="#27214D"/>
</svg>
