<svg width="41" height="11" viewBox="0 0 41 11" fill="none" xmlns="http://www.w3.org/2000/svg">
<path d="M0.52 7.76C0.49 7.9 0.55 8 0.7 8H1.1C1.18 8 1.27 7.93 1.28 7.86L2.15 2.71C2.16 2.71 2.18 2.71 2.19 2.71L4.05 7.99C4.07 8.05 4.16 8.1 4.22 8.1H4.4C4.46 8.1 4.55 8.05 4.57 7.99L6.41 2.71C6.42 2.71 6.44 2.71 6.45 2.71L7.34 7.86C7.36 7.93 7.44 8 7.52 8H7.92C8.07 8 8.13 7.9 8.1 7.76L6.81 1.04C6.79 0.959999 6.71 0.9 6.63 0.9H6.47C6.4 0.9 6.32 0.95 6.3 1.01L4.35 6.52C4.33 6.52 4.32 6.52 4.3 6.52L2.32 1.01C2.3 0.95 2.22 0.9 2.15 0.9H1.99C1.91 0.9 1.83 0.959999 1.81 1.04L0.52 7.76ZM10.457 7.99L9.17703 10.75C9.10703 10.89 9.18703 11 9.33703 11H9.70703C9.77703 11 9.84703 10.94 9.87703 10.88L12.947 4.23C13.017 4.1 12.947 4 12.797 4H12.417C12.347 4 12.277 4.05 12.247 4.11L10.847 7.17H10.837L9.35703 4.11C9.32703 4.05 9.26703 4 9.18703 4H8.74703C8.59703 4 8.53703 4.09 8.59703 4.22L10.457 7.99ZM16.052 7.81C16.052 7.91 16.142 8 16.242 8H16.452C16.542 8 16.602 7.93 16.622 7.84L16.682 7.57C16.682 7.57 17.162 8.1 17.912 8.1C18.932 8.1 19.732 7.14 19.732 5.99C19.732 4.82 19.012 3.9 17.812 3.9C17.152 3.9 16.742 4.16 16.742 4.16V1.19C16.742 1.09 16.652 1 16.552 1H16.242C16.142 1 16.052 1.09 16.052 1.19V7.81ZM16.752 6.81V4.81C16.752 4.81 17.172 4.57 17.722 4.57C18.592 4.57 19.032 5.2 19.032 6C19.032 6.78 18.572 7.47 17.842 7.47C17.122 7.47 16.752 6.81 16.752 6.81ZM20.5763 6.79C20.5763 7.59 21.1063 8.1 21.8063 8.1C22.4263 8.1 22.8363 7.79 23.0463 7.58L23.1263 7.85C23.1563 7.94 23.1863 8 23.2963 8H23.4863C23.5863 8 23.6763 7.91 23.6763 7.81V5.59C23.6763 4.42 23.4263 3.9 22.4063 3.9C21.6563 3.9 21.0763 4.13 21.0163 4.16C20.9263 4.2 20.8663 4.26 20.9063 4.38L20.9863 4.63C21.0163 4.72 21.0763 4.77 21.1763 4.73C21.3563 4.66 21.8263 4.51 22.3763 4.51C22.9463 4.51 23.0363 4.85 23.0263 5.59C23.0263 5.59 22.6063 5.46 22.1763 5.46C21.1463 5.46 20.5763 6.03 20.5763 6.79ZM21.2163 6.79C21.2163 6.27 21.6163 5.99 22.1763 5.99C22.6163 5.99 22.8963 6.08 23.0163 6.15V6.94C22.8463 7.19 22.4163 7.5 21.9163 7.5C21.4863 7.5 21.2163 7.19 21.2163 6.79ZM24.8755 7.65C25.0955 7.82 25.5055 8.1 26.1755 8.1C26.9955 8.1 27.5555 7.55 27.5555 6.97C27.5555 6.25 26.9355 5.94 26.2455 5.61C25.8355 5.41 25.5055 5.26 25.5055 4.93C25.5055 4.76 25.6255 4.53 26.0755 4.53C26.4455 4.53 26.8755 4.77 26.8755 4.77C26.9655 4.82 27.1055 4.79 27.1655 4.68L27.2455 4.52C27.3055 4.41 27.2755 4.27 27.1855 4.21C26.9955 4.08 26.5955 3.9 26.0755 3.9C25.1455 3.9 24.8055 4.52 24.8055 4.94C24.8055 5.62 25.4155 5.97 25.9455 6.23C26.5255 6.52 26.8255 6.68 26.8255 7.03C26.8255 7.3 26.5855 7.51 26.1755 7.51C25.6655 7.51 25.2355 7.16 25.2355 7.16C25.1255 7.09 25.0155 7.11 24.9655 7.19C24.9355 7.24 24.8655 7.38 24.8255 7.44C24.7955 7.51 24.8255 7.61 24.8755 7.65ZM28.6399 7.81C28.6399 7.91 28.7299 8 28.8299 8H29.1399C29.2399 8 29.3299 7.91 29.3299 7.81V5.99L31.3599 7.92C31.3999 7.95 31.4699 8 31.5599 8H32.1099C32.2799 8 32.2899 7.82 32.2099 7.75L29.9999 5.77L31.8999 4.25C31.9699 4.19 31.9799 4 31.8099 4H31.2699C31.1899 4 31.1099 4.05 31.0299 4.12L29.3299 5.52V1.19C29.3299 1.09 29.2399 1 29.1399 1H28.8299C28.7299 1 28.6399 1.09 28.6399 1.19V7.81ZM32.7442 6C32.7442 7.15 33.4942 8.1 34.7042 8.1C35.3942 8.1 35.9342 7.83 36.1742 7.64C36.3242 7.53 36.2842 7.47 36.2142 7.38C36.1542 7.3 36.1042 7.23 36.0442 7.15C35.9642 7.04 35.9042 7.09 35.7642 7.17C35.5342 7.31 35.1942 7.47 34.7742 7.47C34.0642 7.47 33.4742 6.84 33.4342 6.17H36.3142C36.4042 6.17 36.4842 6.1 36.4942 6C36.5042 5.93 36.5142 5.8 36.5142 5.73C36.5142 4.68 35.7542 3.9 34.7042 3.9C33.4942 3.9 32.7442 4.87 32.7442 6ZM33.4442 5.61C33.5142 4.99 34.0342 4.51 34.7042 4.51C35.3142 4.51 35.7942 5.03 35.8242 5.61H33.4442ZM37.8645 7C37.8645 7.62 37.9845 8.1 38.7845 8.1C39.2545 8.1 39.7945 7.85 39.9345 7.76C40.0445 7.69 40.0745 7.63 40.0045 7.51L39.8545 7.26C39.8045 7.18 39.7645 7.12 39.6145 7.2C39.4845 7.27 39.1345 7.42 38.8845 7.42C38.6545 7.42 38.5545 7.34 38.5545 6.94V4.6H39.7145C39.8245 4.6 39.9045 4.51 39.9045 4.41V4.19C39.9045 4.08 39.8245 4 39.7145 4H38.5545V2.87C38.5545 2.77 38.4745 2.68 38.3745 2.68L38.0545 2.7C37.9545 2.7 37.8645 2.79 37.8645 2.89V4H37.3545C37.2445 4 37.1645 4.08 37.1645 4.19V4.41C37.1645 4.51 37.2445 4.6 37.3545 4.6H37.8645V7Z" fill="#27214D"/>
</svg>
